<svg width="256" height="256" viewBox="0 0 120 120" fill="none" xmlns="http://www.w3.org/2000/svg">
  <defs>
    <linearGradient id="daviniGoldGrad" x1="0%" y1="0%" x2="100%" y2="100%">
      <stop offset="0%" stopColor="#E6C687" />
      <stop offset="50%" stopColor="#C86D3B" />
      <stop offset="100%" stopColor="#8C441E" />
    </linearGradient>
  </defs>
  <path d="M60 6L102 28V72L60 114L18 72V28L60 6Z" fill="#14110F" stroke="#C9A96E" stroke-width="3.5"/>
  <path d="M60 14L68 26H52L60 14Z" fill="#C9A96E"/>
  <circle cx="60" cy="30" r="2.5" fill="#FAF8F5"/>
  <path d="M44 40H60C74.3594 40 86 51.6406 86 66C86 80.3594 74.3594 92 60 92H44V40Z" fill="url(#daviniGoldGrad)" fill-opacity="0.22"/>
  <path d="M44 40H60C74.3594 40 86 51.6406 86 66C86 80.3594 74.3594 92 60 92H44V40Z" stroke="#EDD9AA" stroke-width="6" stroke-linecap="round" stroke-linejoin="round"/>
  <path d="M54 48V84" stroke="#C9A96E" stroke-width="4" stroke-linecap="round"/>
  <path d="M58 58C64 60 68 64 68 68C68 73 63 76 58 76" stroke="#C9A96E" stroke-width="4.5" stroke-linecap="round"/>
  <polygon points="60,103 64.5,96 55.5,96" fill="#1E3F20"/>
</svg>
