<svg width="420" height="90" viewBox="0 0 420 90" fill="none" xmlns="http://www.w3.org/2000/svg">
  <defs>
    <linearGradient id="daviniGoldGrad" x1="0%" y1="0%" x2="100%" y2="100%">
      <stop offset="0%" stopColor="#E6C687" />
      <stop offset="50%" stopColor="#C86D3B" />
      <stop offset="100%" stopColor="#8C441E" />
    </linearGradient>
  </defs>
  
  <g transform="translate(6, 6) scale(0.65)">
    <path d="M60 6L102 28V72L60 114L18 72V28L60 6Z" fill="#1A1817" stroke="#C86D3B" stroke-width="3.5"/>
    <path d="M60 14L68 26H52L60 14Z" fill="#C86D3B"/>
    <circle cx="60" cy="30" r="2.5" fill="#FAF8F5"/>
    <path d="M44 40H60C74.3594 40 86 51.6406 86 66C86 80.3594 74.3594 92 60 92H44V40Z" fill="url(#daviniGoldGrad)" fill-opacity="0.18"/>
    <path d="M44 40H60C74.3594 40 86 51.6406 86 66C86 80.3594 74.3594 92 60 92H44V40Z" stroke="#FAF8F5" stroke-width="6" stroke-linecap="round" stroke-linejoin="round"/>
    <path d="M54 48V84" stroke="#C86D3B" stroke-width="4" stroke-linecap="round"/>
    <path d="M58 58C64 60 68 64 68 68C68 73 63 76 58 76" stroke="#C86D3B" stroke-width="4.5" stroke-linecap="round"/>
    <polygon points="60,103 64.5,96 55.5,96" fill="#1E3F20"/>
  </g>

  <text x="96" y="50" fill="#1A1817" font-family="'Cormorant Garamond', Georgia, serif" font-weight="bold" font-size="34" letter-spacing="-0.5">Davini&apos;s Food Bank</text>
  <text x="98" y="70" fill="#C86D3B" font-family="'Plus Jakarta Sans', sans-serif" font-weight="600" font-size="10.5" letter-spacing="2.8" text-transform="uppercase">Premium Nigerian Cuisine &bull; VIP Dining</text>
</svg>
